<svg width="320" height="320" viewBox="0 0 320 320" fill="none" xmlns="http://www.w3.org/2000/svg">
  <defs>
    <radialGradient id="v1" cx="0" cy="0" r="1" gradientUnits="userSpaceOnUse" gradientTransform="translate(112 106) rotate(136) scale(84 72)">
      <stop offset="0" stop-color="#7D66D7" stop-opacity="0.94"/>
      <stop offset="0.5" stop-color="#C6B8F6" stop-opacity="0.78"/>
      <stop offset="1" stop-color="#F4EEFF" stop-opacity="0.15"/>
    </radialGradient>
    <radialGradient id="v2" cx="0" cy="0" r="1" gradientUnits="userSpaceOnUse" gradientTransform="translate(208 110) rotate(42) scale(84 70)">
      <stop offset="0" stop-color="#A37DE8" stop-opacity="0.92"/>
      <stop offset="0.5" stop-color="#DFCFFD" stop-opacity="0.72"/>
      <stop offset="1" stop-color="#FAF5FF" stop-opacity="0.14"/>
    </radialGradient>
    <radialGradient id="v3" cx="0" cy="0" r="1" gradientUnits="userSpaceOnUse" gradientTransform="translate(122 200) rotate(116) scale(60 54)">
      <stop offset="0" stop-color="#8E70DE" stop-opacity="0.82"/>
      <stop offset="0.55" stop-color="#D9CAF8" stop-opacity="0.56"/>
      <stop offset="1" stop-color="#F8F2FF" stop-opacity="0.12"/>
    </radialGradient>
    <radialGradient id="v4" cx="0" cy="0" r="1" gradientUnits="userSpaceOnUse" gradientTransform="translate(196 199) rotate(62) scale(60 54)">
      <stop offset="0" stop-color="#6E8DE8" stop-opacity="0.86"/>
      <stop offset="0.52" stop-color="#C5D7FF" stop-opacity="0.58"/>
      <stop offset="1" stop-color="#F1F6FF" stop-opacity="0.12"/>
    </radialGradient>
  </defs>
  <g opacity="0.66">
    <path d="M157 151C142 106 104 78 76 90C56 100 56 128 73 148C92 170 123 173 157 151Z" fill="url(#v1)" stroke="#9E8AE3" stroke-opacity="0.46" stroke-width="2.4"/>
    <path d="M163 151C178 106 216 78 244 90C264 100 264 128 247 148C228 170 197 173 163 151Z" fill="url(#v2)" stroke="#B59BE9" stroke-opacity="0.44" stroke-width="2.4"/>
    <path d="M156 166C139 170 111 185 105 209C99 231 114 244 131 242C147 240 157 208 156 166Z" fill="url(#v3)" stroke="#B09BE6" stroke-opacity="0.4" stroke-width="2.1"/>
    <path d="M164 166C181 170 209 185 215 209C221 231 206 244 189 242C173 240 163 208 164 166Z" fill="url(#v4)" stroke="#8EABE9" stroke-opacity="0.4" stroke-width="2.1"/>
  </g>
  <g opacity="0.42" stroke-linecap="round">
    <path d="M156 150C142 133 119 125 99 127" stroke="#8E79DB" stroke-width="1.8"/>
    <path d="M164 150C178 133 201 125 221 127" stroke="#A98AE6" stroke-width="1.8"/>
    <path d="M156 166C143 176 132 188 126 203" stroke="#B69FEA" stroke-width="1.7"/>
    <path d="M164 166C177 176 188 188 194 203" stroke="#8EA9E8" stroke-width="1.7"/>
  </g>
  <path d="M160 112C151 130 150 153 153 175C155 195 158 214 160 229C162 214 165 195 167 175C170 153 169 130 160 112Z" fill="#5A497A" fill-opacity="0.66"/>
  <path d="M158 110C154 95 149 84 142 76" stroke="#8F79D8" stroke-width="3" stroke-linecap="round" opacity="0.56"/>
  <path d="M162 110C166 95 171 84 178 76" stroke="#A991E5" stroke-width="3" stroke-linecap="round" opacity="0.56"/>
</svg>
