<svg width="320" height="320" viewBox="0 0 320 320" fill="none" xmlns="http://www.w3.org/2000/svg">
  <defs>
    <radialGradient id="b1" cx="0" cy="0" r="1" gradientUnits="userSpaceOnUse" gradientTransform="translate(108 108) rotate(136) scale(92 76)">
      <stop offset="0" stop-color="#4F88E8" stop-opacity="0.92"/>
      <stop offset="0.5" stop-color="#9CD1FF" stop-opacity="0.78"/>
      <stop offset="1" stop-color="#F0FAFF" stop-opacity="0.14"/>
    </radialGradient>
    <radialGradient id="b2" cx="0" cy="0" r="1" gradientUnits="userSpaceOnUse" gradientTransform="translate(214 110) rotate(46) scale(86 74)">
      <stop offset="0" stop-color="#5D9AEE" stop-opacity="0.94"/>
      <stop offset="0.52" stop-color="#B1DBFF" stop-opacity="0.76"/>
      <stop offset="1" stop-color="#F4FBFF" stop-opacity="0.14"/>
    </radialGradient>
    <radialGradient id="b3" cx="0" cy="0" r="1" gradientUnits="userSpaceOnUse" gradientTransform="translate(120 200) rotate(116) scale(66 56)">
      <stop offset="0" stop-color="#73A9F3" stop-opacity="0.8"/>
      <stop offset="0.56" stop-color="#CAE6FF" stop-opacity="0.56"/>
      <stop offset="1" stop-color="#F4FBFF" stop-opacity="0.1"/>
    </radialGradient>
    <radialGradient id="b4" cx="0" cy="0" r="1" gradientUnits="userSpaceOnUse" gradientTransform="translate(198 201) rotate(64) scale(64 56)">
      <stop offset="0" stop-color="#4B89E7" stop-opacity="0.88"/>
      <stop offset="0.52" stop-color="#A7D8FF" stop-opacity="0.62"/>
      <stop offset="1" stop-color="#EFF9FF" stop-opacity="0.1"/>
    </radialGradient>
  </defs>
  <g opacity="0.66">
    <path d="M156 151C138 101 100 75 71 88C49 98 48 128 67 149C88 173 121 175 156 151Z" fill="url(#b1)" stroke="#81B3EF" stroke-opacity="0.5" stroke-width="2.4"/>
    <path d="M164 151C181 101 219 75 248 88C270 98 271 128 252 149C231 173 198 175 164 151Z" fill="url(#b2)" stroke="#76AAEE" stroke-opacity="0.5" stroke-width="2.4"/>
    <path d="M156 167C137 171 108 187 102 212C97 235 113 247 131 244C149 241 159 208 156 167Z" fill="url(#b3)" stroke="#97C4F5" stroke-opacity="0.42" stroke-width="2.1"/>
    <path d="M164 167C183 170 212 186 218 211C223 234 207 247 189 244C171 241 161 208 164 167Z" fill="url(#b4)" stroke="#7EB7EF" stroke-opacity="0.42" stroke-width="2.1"/>
  </g>
  <g opacity="0.42" stroke-linecap="round">
    <path d="M156 150C140 132 116 123 95 126" stroke="#76A6EA" stroke-width="1.9"/>
    <path d="M164 150C180 132 204 123 225 126" stroke="#5C93E8" stroke-width="1.9"/>
    <path d="M156 167C142 177 130 191 124 207" stroke="#9CCCF7" stroke-width="1.8"/>
    <path d="M164 167C178 176 190 190 196 206" stroke="#7CB2EE" stroke-width="1.8"/>
  </g>
  <path d="M160 110C151 130 149 154 152 177C154 197 157 217 160 232C163 217 166 197 168 177C171 154 169 130 160 110Z" fill="#536A9E" fill-opacity="0.66"/>
  <path d="M158 108C153 93 147 82 140 74" stroke="#88B0F0" stroke-width="3" stroke-linecap="round" opacity="0.56"/>
  <path d="M162 108C167 93 173 82 180 75" stroke="#6798E6" stroke-width="3" stroke-linecap="round" opacity="0.56"/>
</svg>
