<svg width="320" height="320" viewBox="0 0 320 320" fill="none" xmlns="http://www.w3.org/2000/svg">
  <defs>
    <radialGradient id="p1" cx="0" cy="0" r="1" gradientUnits="userSpaceOnUse" gradientTransform="translate(110 108) rotate(137) scale(88 76)">
      <stop offset="0" stop-color="#C070B8" stop-opacity="0.9"/>
      <stop offset="0.48" stop-color="#F0B5D8" stop-opacity="0.72"/>
      <stop offset="1" stop-color="#FFF1F8" stop-opacity="0.16"/>
    </radialGradient>
    <radialGradient id="p2" cx="0" cy="0" r="1" gradientUnits="userSpaceOnUse" gradientTransform="translate(212 112) rotate(42) scale(82 72)">
      <stop offset="0" stop-color="#F3A6C6" stop-opacity="0.9"/>
      <stop offset="0.52" stop-color="#FFD3E6" stop-opacity="0.7"/>
      <stop offset="1" stop-color="#FFF4FA" stop-opacity="0.12"/>
    </radialGradient>
    <radialGradient id="p3" cx="0" cy="0" r="1" gradientUnits="userSpaceOnUse" gradientTransform="translate(122 204) rotate(115) scale(64 58)">
      <stop offset="0" stop-color="#BC78C9" stop-opacity="0.82"/>
      <stop offset="0.55" stop-color="#E7C2EC" stop-opacity="0.58"/>
      <stop offset="1" stop-color="#FDF1FD" stop-opacity="0.1"/>
    </radialGradient>
    <radialGradient id="p4" cx="0" cy="0" r="1" gradientUnits="userSpaceOnUse" gradientTransform="translate(196 202) rotate(62) scale(62 54)">
      <stop offset="0" stop-color="#F1A4C4" stop-opacity="0.84"/>
      <stop offset="0.52" stop-color="#FFD8E8" stop-opacity="0.6"/>
      <stop offset="1" stop-color="#FFF5FA" stop-opacity="0.12"/>
    </radialGradient>
  </defs>
  <g opacity="0.65">
    <path d="M156 151C140 103 99 74 68 88C46 99 47 129 67 151C89 174 122 176 156 151Z" fill="url(#p1)" stroke="#CF8BB3" stroke-opacity="0.45" stroke-width="2.4"/>
    <path d="M164 151C180 105 219 76 248 89C270 99 272 128 253 149C231 173 199 176 164 151Z" fill="url(#p2)" stroke="#E3A2BE" stroke-opacity="0.42" stroke-width="2.4"/>
    <path d="M155 167C136 171 105 187 100 214C96 238 114 251 133 246C149 242 158 208 155 167Z" fill="url(#p3)" stroke="#D19CCD" stroke-opacity="0.42" stroke-width="2.1"/>
    <path d="M165 167C184 170 214 187 219 213C223 236 206 249 188 245C171 241 163 208 165 167Z" fill="url(#p4)" stroke="#E5AFC3" stroke-opacity="0.42" stroke-width="2.1"/>
  </g>
  <g opacity="0.45" stroke-linecap="round">
    <path d="M156 150C139 132 113 123 92 126" stroke="#B474C0" stroke-width="1.9"/>
    <path d="M164 150C181 132 206 123 228 126" stroke="#E098B7" stroke-width="1.9"/>
    <path d="M156 167C140 177 128 190 122 208" stroke="#C48ED0" stroke-width="1.8"/>
    <path d="M164 167C179 176 191 189 197 205" stroke="#E4A4C4" stroke-width="1.8"/>
  </g>
  <path d="M160 110C151 130 149 154 152 178C154 198 157 217 160 233C163 217 166 198 168 178C171 154 169 130 160 110Z" fill="#744B78" fill-opacity="0.68"/>
  <path d="M158 108C153 92 146 80 138 72" stroke="#A05AAF" stroke-width="3" stroke-linecap="round" opacity="0.58"/>
  <path d="M162 108C166 93 172 82 180 74" stroke="#D589B5" stroke-width="3" stroke-linecap="round" opacity="0.58"/>
</svg>
