<svg width="320" height="320" viewBox="0 0 320 320" fill="none" xmlns="http://www.w3.org/2000/svg">
  <defs>
    <linearGradient id="wingGradient" x1="64" y1="56" x2="256" y2="264" gradientUnits="userSpaceOnUse">
      <stop offset="0" stop-color="#E9D4AF"/>
      <stop offset="0.5" stop-color="#E7C8BE"/>
      <stop offset="1" stop-color="#D9CCB4"/>
    </linearGradient>
    <linearGradient id="bodyGradient" x1="160" y1="72" x2="160" y2="250" gradientUnits="userSpaceOnUse">
      <stop offset="0" stop-color="#A56A4E"/>
      <stop offset="1" stop-color="#7C5038"/>
    </linearGradient>
  </defs>

  <g opacity="0.72">
    <path
      d="M151 131C130 95 89 73 63 84C37 95 34 137 55 165C77 194 119 192 151 161"
      fill="url(#wingGradient)"
      fill-opacity="0.18"
      stroke="#C6A487"
      stroke-width="6"
      stroke-linecap="round"
      stroke-linejoin="round"
    />
    <path
      d="M150 168C123 170 90 190 81 220C72 250 100 277 131 269C157 262 168 227 160 183"
      fill="url(#wingGradient)"
      fill-opacity="0.12"
      stroke="#D5B7A0"
      stroke-width="5"
      stroke-linecap="round"
      stroke-linejoin="round"
    />
    <path
      d="M169 131C190 95 231 73 257 84C283 95 286 137 265 165C243 194 201 192 169 161"
      fill="url(#wingGradient)"
      fill-opacity="0.18"
      stroke="#C6A487"
      stroke-width="6"
      stroke-linecap="round"
      stroke-linejoin="round"
    />
    <path
      d="M170 168C197 170 230 190 239 220C248 250 220 277 189 269C163 262 152 227 160 183"
      fill="url(#wingGradient)"
      fill-opacity="0.12"
      stroke="#D5B7A0"
      stroke-width="5"
      stroke-linecap="round"
      stroke-linejoin="round"
    />

    <path
      d="M160 104C150 127 148 155 151 183C153 205 157 227 160 245C163 227 167 205 169 183C172 155 170 127 160 104Z"
      fill="url(#bodyGradient)"
      fill-opacity="0.58"
    />

    <path
      d="M154 98C149 81 142 67 131 56"
      stroke="#B28A72"
      stroke-width="4"
      stroke-linecap="round"
    />
    <path
      d="M166 98C171 81 178 67 189 56"
      stroke="#B28A72"
      stroke-width="4"
      stroke-linecap="round"
    />

    <circle cx="127" cy="52" r="5" fill="#E9D8CB" fill-opacity="0.72"/>
    <circle cx="193" cy="52" r="5" fill="#E9D8CB" fill-opacity="0.72"/>

    <path
      d="M149 141C126 123 97 116 76 124"
      stroke="#F2E7DC"
      stroke-width="3"
      stroke-linecap="round"
      opacity="0.52"
    />
    <path
      d="M149 157C124 152 101 160 89 177"
      stroke="#F2E7DC"
      stroke-width="3"
      stroke-linecap="round"
      opacity="0.46"
    />
    <path
      d="M171 141C194 123 223 116 244 124"
      stroke="#F2E7DC"
      stroke-width="3"
      stroke-linecap="round"
      opacity="0.52"
    />
    <path
      d="M171 157C196 152 219 160 231 177"
      stroke="#F2E7DC"
      stroke-width="3"
      stroke-linecap="round"
      opacity="0.46"
    />
  </g>
</svg>
